<svg height="100%" viewBox="0 0 321 71" xmlns="http://www.w3.org/2000/svg">
<path d="M289.662 26.9875C290.592 26.1195 291.553 25.3135 292.545 24.5695C293.537 23.8255 294.591 23.2055 295.707 22.7095C296.854 22.1825 298.078 21.7795 299.38 21.5005C300.713 21.1905 302.155 21.0355 303.705 21.0355C306.34 21.0355 308.665 21.5005 310.68 22.4305C312.726 23.3295 314.446 24.6005 315.841 26.2435C317.236 27.8555 318.29 29.793 319.003 32.056C319.716 34.288 320.073 36.7215 320.073 39.3565V70H305.658V39.3565C305.658 37.0005 305.115 35.1715 304.03 33.8695C302.945 32.5365 301.349 31.87 299.241 31.87C297.66 31.87 296.172 32.211 294.777 32.893C293.413 33.544 292.08 34.443 290.778 35.59V70H276.363V21.7795H285.291C287.089 21.7795 288.267 22.5855 288.825 24.1975L289.662 26.9875Z" fill="url(#paint0_linear)"/>
<path d="M242.59 21.0355C246.248 21.0355 249.581 21.609 252.588 22.756C255.595 23.903 258.168 25.546 260.307 27.685C262.477 29.824 264.151 32.428 265.329 35.497C266.538 38.535 267.142 41.9605 267.142 45.7735C267.142 49.6175 266.538 53.0895 265.329 56.1895C264.151 59.2585 262.477 61.878 260.307 64.048C258.168 66.187 255.595 67.8455 252.588 69.0235C249.581 70.1705 246.248 70.744 242.59 70.744C238.901 70.744 235.538 70.1705 232.5 69.0235C229.493 67.8455 226.889 66.187 224.688 64.048C222.518 61.878 220.828 59.2585 219.619 56.1895C218.441 53.0895 217.852 49.6175 217.852 45.7735C217.852 41.9605 218.441 38.535 219.619 35.497C220.828 32.428 222.518 29.824 224.688 27.685C226.889 25.546 229.493 23.903 232.5 22.756C235.538 21.609 238.901 21.0355 242.59 21.0355ZM242.59 60.049C245.907 60.049 248.341 58.8865 249.891 56.5615C251.472 54.2055 252.262 50.6405 252.262 45.8665C252.262 41.0925 251.472 37.543 249.891 35.218C248.341 32.893 245.907 31.7305 242.59 31.7305C239.18 31.7305 236.685 32.893 235.104 35.218C233.523 37.543 232.732 41.0925 232.732 45.8665C232.732 50.6405 233.523 54.2055 235.104 56.5615C236.685 58.8865 239.18 60.049 242.59 60.049Z" fill="url(#paint1_linear)"/>
<path d="M196.612 29.2195C198.1 26.6155 199.805 24.5695 201.727 23.0815C203.68 21.5935 205.912 20.8495 208.423 20.8495C210.593 20.8495 212.36 21.361 213.724 22.384L212.794 32.986C212.639 33.668 212.376 34.133 212.004 34.381C211.663 34.629 211.182 34.753 210.562 34.753C210.314 34.753 209.989 34.7375 209.586 34.7065C209.183 34.6755 208.764 34.6445 208.33 34.6135C207.896 34.5515 207.447 34.505 206.982 34.474C206.548 34.412 206.145 34.381 205.773 34.381C203.665 34.381 201.975 34.939 200.704 36.055C199.464 37.171 198.41 38.721 197.542 40.705V70H183.127V21.7795H191.683C192.396 21.7795 192.985 21.8415 193.45 21.9655C193.946 22.0895 194.349 22.291 194.659 22.57C195 22.818 195.248 23.159 195.403 23.593C195.589 24.027 195.744 24.554 195.868 25.174L196.612 29.2195Z" fill="url(#paint2_linear)"/>
<path d="M171.726 21.7795V70H157.311V21.7795H171.726ZM173.214 8.57347C173.214 9.72047 172.982 10.8055 172.517 11.8285C172.052 12.8205 171.416 13.704 170.61 14.479C169.804 15.223 168.859 15.8275 167.774 16.2925C166.72 16.7265 165.588 16.9435 164.379 16.9435C163.201 16.9435 162.101 16.7265 161.078 16.2925C160.055 15.8275 159.14 15.223 158.334 14.479C157.559 13.704 156.939 12.8205 156.474 11.8285C156.04 10.8055 155.823 9.72047 155.823 8.57347C155.823 7.39547 156.04 6.29497 156.474 5.27197C156.939 4.24897 157.559 3.34997 158.334 2.57497C159.14 1.79997 160.055 1.19547 161.078 0.761471C162.101 0.327473 163.201 0.110474 164.379 0.110474C165.588 0.110474 166.72 0.327473 167.774 0.761471C168.859 1.19547 169.804 1.79997 170.61 2.57497C171.416 3.34997 172.052 4.24897 172.517 5.27197C172.982 6.29497 173.214 7.39547 173.214 8.57347Z" fill="url(#paint3_linear)"/>
<path d="M131.304 62.6995C131.304 61.5835 131.506 60.545 131.909 59.584C132.343 58.623 132.916 57.786 133.629 57.073C134.373 56.36 135.241 55.802 136.233 55.399C137.225 54.965 138.31 54.748 139.488 54.748C140.635 54.748 141.705 54.965 142.697 55.399C143.689 55.802 144.557 56.36 145.301 57.073C146.045 57.786 146.618 58.623 147.021 59.584C147.455 60.545 147.672 61.5835 147.672 62.6995C147.672 63.8155 147.455 64.8695 147.021 65.8615C146.618 66.8225 146.045 67.6595 145.301 68.3725C144.557 69.0855 143.689 69.6435 142.697 70.0465C141.705 70.4495 140.635 70.651 139.488 70.651C138.31 70.651 137.225 70.4495 136.233 70.0465C135.241 69.6435 134.373 69.0855 133.629 68.3725C132.916 67.6595 132.343 66.8225 131.909 65.8615C131.506 64.8695 131.304 63.8155 131.304 62.6995Z" fill="#BFBABA"/>
<path d="M114.288 70.744C111.994 70.744 109.963 70.4185 108.196 69.7675C106.46 69.0855 104.988 68.14 103.779 66.931C102.601 65.691 101.702 64.203 101.082 62.467C100.462 60.731 100.152 58.7935 100.152 56.6545V31.7305H96.0598C95.3158 31.7305 94.6803 31.498 94.1533 31.033C93.6263 30.537 93.3628 29.824 93.3628 28.894V23.2675L101.035 21.7795L103.872 10.015C104.244 8.52696 105.298 7.78296 107.034 7.78296H114.567V21.8725H126.517V31.7305H114.567V55.678C114.567 56.794 114.83 57.724 115.357 58.468C115.915 59.181 116.706 59.5375 117.729 59.5375C118.256 59.5375 118.69 59.491 119.031 59.398C119.403 59.274 119.713 59.15 119.961 59.026C120.24 58.871 120.488 58.747 120.705 58.654C120.953 58.53 121.232 58.468 121.542 58.468C121.976 58.468 122.317 58.5765 122.565 58.7935C122.844 58.9795 123.123 59.2895 123.402 59.7235L127.773 66.559C125.913 67.954 123.82 69.008 121.495 69.721C119.17 70.403 116.768 70.744 114.288 70.744Z"/>
<path d="M85.726 21.7795V70H71.311V21.7795H85.726ZM87.214 8.57347C87.214 9.72047 86.9815 10.8055 86.5165 11.8285C86.0515 12.8205 85.416 13.704 84.61 14.479C83.804 15.223 82.8585 15.8275 81.7735 16.2925C80.7195 16.7265 79.588 16.9435 78.379 16.9435C77.201 16.9435 76.1005 16.7265 75.0775 16.2925C74.0545 15.8275 73.14 15.223 72.334 14.479C71.559 13.704 70.939 12.8205 70.474 11.8285C70.04 10.8055 69.823 9.72047 69.823 8.57347C69.823 7.39547 70.04 6.29497 70.474 5.27197C70.939 4.24897 71.559 3.34997 72.334 2.57497C73.14 1.79997 74.0545 1.19547 75.0775 0.761471C76.1005 0.327473 77.201 0.110474 78.379 0.110474C79.588 0.110474 80.7195 0.327473 81.7735 0.761471C82.8585 1.19547 83.804 1.79997 84.61 2.57497C85.416 3.34997 86.0515 4.24897 86.5165 5.27197C86.9815 6.29497 87.214 7.39547 87.214 8.57347Z"/>
<path d="M36.503 34.8925H60.59V63.49C57.118 66.032 53.4135 67.8765 49.4765 69.0235C45.5705 70.1705 41.4785 70.744 37.2005 70.744C31.6205 70.744 26.5365 69.876 21.9485 68.14C17.3915 66.373 13.4855 63.955 10.2305 60.886C6.97548 57.786 4.46448 54.128 2.69748 49.912C0.930482 45.665 0.0469818 41.0615 0.0469818 36.1015C0.0469818 31.0485 0.883982 26.414 2.55798 22.198C4.23198 17.951 6.61898 14.293 9.71898 11.224C12.85 8.155 16.6165 5.76799 21.0185 4.06299C25.4515 2.35799 30.396 1.50549 35.852 1.50549C38.673 1.50549 41.3235 1.73799 43.8035 2.20299C46.2835 2.66799 48.562 3.30349 50.639 4.10949C52.747 4.91549 54.669 5.87649 56.405 6.99249C58.141 8.10849 59.691 9.31749 61.055 10.6195L56.498 17.548C55.785 18.633 54.855 19.2995 53.708 19.5475C52.592 19.7955 51.383 19.5165 50.081 18.7105C48.841 17.9665 47.663 17.331 46.547 16.804C45.462 16.246 44.346 15.7965 43.199 15.4555C42.052 15.1145 40.843 14.8665 39.572 14.7115C38.301 14.5565 36.875 14.479 35.294 14.479C32.349 14.479 29.6985 15.006 27.3425 16.06C24.9865 17.083 22.9715 18.54 21.2975 20.431C19.6545 22.322 18.3835 24.6005 17.4845 27.2665C16.5855 29.9015 16.136 32.8465 16.136 36.1015C16.136 39.6975 16.632 42.8905 17.624 45.6805C18.616 48.4705 20.011 50.8265 21.809 52.7485C23.638 54.6705 25.808 56.143 28.319 57.166C30.861 58.158 33.6665 58.654 36.7355 58.654C38.6265 58.654 40.3315 58.468 41.8505 58.096C43.4005 57.724 44.904 57.228 46.361 56.608V46.3315H39.665C38.673 46.3315 37.898 46.068 37.34 45.541C36.782 45.014 36.503 44.3475 36.503 43.5415V34.8925Z"/>
<defs>
<linearGradient id="paint0_linear" x1="298" y1="-22.0001" x2="298" y2="89.9999" gradientUnits="userSpaceOnUse">
<stop stop-color="#FB4C44"/>
<stop offset="1" stop-color="#4E1861"/>
</linearGradient>
<linearGradient id="paint1_linear" x1="242.5" y1="-22.0001" x2="242.5" y2="89.9999" gradientUnits="userSpaceOnUse">
<stop stop-color="#FB4C44"/>
<stop offset="1" stop-color="#4E1861"/>
</linearGradient>
<linearGradient id="paint2_linear" x1="196" y1="-22" x2="196" y2="90" gradientUnits="userSpaceOnUse">
<stop stop-color="#FB4C44"/>
<stop offset="1" stop-color="#4E1861"/>
</linearGradient>
<linearGradient id="paint3_linear" x1="164.5" y1="-22" x2="164.5" y2="90" gradientUnits="userSpaceOnUse">
<stop stop-color="#FB4C44"/>
<stop offset="1" stop-color="#4E1861"/>
</linearGradient>
</defs>
</svg>